<svg width="126" height="105" viewBox="0 0 126 105" fill="none" xmlns="http://www.w3.org/2000/svg">
<mask id="mask0" mask-type="alpha" maskUnits="userSpaceOnUse" x="0" y="21" width="94" height="84">
<path d="M0 21H86C90.4183 21 94 24.5817 94 29V97C94 101.418 90.4183 105 86 105H0V21Z" fill="#C4C4C4"/>
</mask>
<g mask="url(#mask0)">
<path d="M0 21H92C94.2091 21 96 22.7909 96 25V101C96 103.209 94.2091 105 92 105H0V21Z" fill="#FAFAFB"/>
<rect x="50" y="47" width="27" height="2" rx="1" fill="#ACB1B6"/>
<rect x="21" y="78" width="56" height="2" rx="1" fill="#ACB1B6"/>
<rect x="50" y="55" width="27" height="2" rx="1" fill="#ACB1B6"/>
<rect x="50" y="63" width="27" height="2" rx="1" fill="#ACB1B6"/>
<rect x="21" y="71" width="56" height="2" rx="1" fill="#ACB1B6"/>
<path d="M21 65.0127V63.8279C21 62.7967 21.4615 61.8094 22.2747 61.1951C24.6484 59.3521 27.0659 58.1235 27.5714 57.8821C27.6374 57.8602 27.6813 57.7944 27.6813 57.7286V56.2586C27.3077 55.6223 27.0879 54.8983 27 54.262C26.7802 54.2401 26.4725 53.9329 26.1648 52.814C25.7253 51.2781 26.1868 51.0587 26.5824 51.0807C26.2967 50.2689 26.2967 49.479 26.4725 48.755C26.6703 47.8994 27.1319 47.1973 27.6593 46.6707C27.989 46.3197 28.3626 46.0125 28.7582 45.7492C29.0879 45.5298 29.4396 45.3324 29.8352 45.2007C30.1429 45.091 30.4725 45.0252 30.8022 45.0252C31.8791 44.9155 32.6923 45.1788 33.2637 45.5298C34.1209 46.0125 34.4505 46.6268 34.4505 46.6268C34.4505 46.6268 36.6264 46.7804 35.6813 51.322C35.967 51.4317 36.1868 51.8266 35.8352 53.0114C35.4176 54.4814 35.044 54.5692 34.8022 54.4156C34.7143 54.9202 34.5604 55.4907 34.2967 56.0172C34.2967 56.7632 34.2967 57.4433 34.2967 57.7066C34.2967 57.7724 34.3407 57.8383 34.4066 57.8602C34.9341 58.1235 37.3516 59.3521 39.7253 61.1951C40.5385 61.8314 41 62.7967 41 63.8279V65.0127C41 65.5612 40.5604 66 40.011 66H21.967C21.4396 65.9781 21 65.5393 21 65.0127Z" fill="#ACB1B6"/>
</g>
<g filter="url(#filter0_d)">
<circle cx="90" cy="24" r="12" fill="#9F52BC"/>
</g>
<path d="M86 25.917V28H88.083L94.2266 21.8564L92.1436 19.7734L86 25.917ZM95.8375 20.2455C96.0542 20.0289 96.0542 19.6789 95.8375 19.4623L94.5377 18.1625C94.3211 17.9458 93.9711 17.9458 93.7545 18.1625L92.738 19.179L94.821 21.262L95.8375 20.2455Z" fill="white"/>
<defs>
<filter id="filter0_d" x="54" y="0" width="72" height="72" filterUnits="userSpaceOnUse" color-interpolation-filters="sRGB">
<feFlood flood-opacity="0" result="BackgroundImageFix"/>
<feColorMatrix in="SourceAlpha" type="matrix" values="0 0 0 0 0 0 0 0 0 0 0 0 0 0 0 0 0 0 127 0"/>
<feOffset dy="12"/>
<feGaussianBlur stdDeviation="12"/>
<feColorMatrix type="matrix" values="0 0 0 0 0.391667 0 0 0 0 0.391667 0 0 0 0 0.391667 0 0 0 0.4 0"/>
<feBlend mode="normal" in2="BackgroundImageFix" result="effect1_dropShadow"/>
<feBlend mode="normal" in="SourceGraphic" in2="effect1_dropShadow" result="shape"/>
</filter>
</defs>
</svg>
